<?xml version="1.0" encoding="UTF-8" standalone="no"?>
<!-- Created with Inkscape (http://www.inkscape.org/) -->

<svg
   version="1.1"
   id="svg1"
   width="500"
   height="202"
   viewBox="0 0 500 202"
   sodipodi:docname="logofinaleee.svg"
   inkscape:version="1.4.2 (f4327f4, 2025-05-13)"
   xmlns:inkscape="http://www.inkscape.org/namespaces/inkscape"
   xmlns:sodipodi="http://sodipodi.sourceforge.net/DTD/sodipodi-0.dtd"
   xmlns="http://www.w3.org/2000/svg"
   xmlns:svg="http://www.w3.org/2000/svg">
  <defs
     id="defs1" />
  <sodipodi:namedview
     id="namedview1"
     pagecolor="#ffffff"
     bordercolor="#000000"
     borderopacity="0.25"
     inkscape:showpageshadow="2"
     inkscape:pageopacity="0.0"
     inkscape:pagecheckerboard="0"
     inkscape:deskcolor="#d1d1d1"
     inkscape:zoom="5.6568543"
     inkscape:cx="354.34888"
     inkscape:cy="143.10073"
     inkscape:window-width="1920"
     inkscape:window-height="1017"
     inkscape:window-x="-8"
     inkscape:window-y="-8"
     inkscape:window-maximized="1"
     inkscape:current-layer="g1" />
  <g
     inkscape:groupmode="layer"
     inkscape:label="Image"
     id="g1">
    <path
       style="fill:#000000;fill-rule:nonzero;fill-opacity:1"
       d="m 243.20537,193.71643 c -5.07573,-8.21271 45.20224,-32.83168 71.52533,-35.02289 21.96915,-1.82878 36.53546,-0.9828 79.03232,4.59002 24.41528,3.2017 48,0.46925 48,-5.56111 0,-4.08981 -19.63354,-10.30406 -37.5,-11.8692 -7.15,-0.62636 -16.6,-1.62866 -21,-2.22734 -4.4,-0.59868 -10.925,-1.4111 -14.5,-1.80538 -25.58723,-2.82197 -34.46583,-5.71214 -38,-12.36978 -1.21853,-2.29547 -3.28262,-3.44351 -11,-6.11822 -5.225,-1.81089 -12.84774,-4.74111 -16.93942,-6.5116 l -7.43941,-3.21908 -19.06059,-1.42654 c -10.48332,-0.7846 -23.56058,-1.85945 -29.06058,-2.38855 -5.5,-0.52911 -21.925,-1.20356 -36.5,-1.49877 -14.575,-0.29522 -30.1,-0.73561 -34.5,-0.97866 -4.4,-0.24305 -21.62793,-0.74784 -38.28429,-1.12174 -30.2316,-0.67866 -33.57582,-1.14233 -29.61849,-4.10656 2.2001,-1.64797 80.75841,-1.0982 111.90278,0.78312 9.35,0.5648 27.575,1.4158 40.5,1.89111 12.925,0.4753 25.075,1.38958 27,2.03171 1.925,0.64213 11.6,1.5422 21.5,2.00014 9.9,0.45795 20.13905,1.37919 22.75345,2.0472 3.55439,0.90819 5.09857,0.92814 6.12164,0.0791 9.58639,-7.95604 80.12491,-14.19487 80.12491,-7.08674 0,1.17383 -1.25096,1.43068 -6,1.23195 -19.23235,-0.80484 -53.92265,2.67365 -64.5,6.46758 -6.0662,2.17585 -6.36099,2.56127 -4.02183,5.25835 4.18055,4.82021 2.19257,9.63636 -4.42062,10.70953 l -3.62091,0.5876 1.34001,2.01816 c 2.27939,3.43295 24.49104,7.74004 47.22335,9.15715 41.01839,2.55705 61.43761,8.59064 61.48469,18.16786 0.0511,10.39371 -23.90922,13.97949 -60.48469,9.05182 -30.80702,-4.1505 -36.43138,-4.66696 -50.82431,-4.66696 -34.21174,0 -67.2699,11.42035 -86.30104,29.81376 -0.74762,0.72256 -1.78167,1.05272 -2.29788,0.73369 -0.51622,-0.31904 -1.2642,-0.0532 -1.66218,0.59075 -0.45192,0.73122 -0.29014,0.90292 0.4309,0.45729 0.63498,-0.39244 1.15451,-0.23697 1.15451,0.34549 0,1.3856 -1.69415,1.36291 -2.55765,-0.0343 z m 88.27715,-76.19531 c -0.3559,-0.92746 -3.27997,-1.84911 -8.17759,-2.57754 -14.6587,-2.18021 -16.27902,-1.04463 -4.04191,2.8327 3.85,1.21987 7.675,2.60096 8.5,3.06907 1.8716,1.06198 4.50091,-1.28791 3.7195,-3.32423 z M 62.34768,99.48527 c -2.89371,-2.89371 -3.08955,-3.84784 -1.43496,-6.99131 2.26719,-4.30729 12.63868,-5.80702 11.55713,-1.67117 -1.05003,4.01532 2.73395,4.43712 9.86574,1.09975 7.18134,-3.36055 8.28217,-4.86072 6.07739,-8.28205 -6.2355,-9.676109 0.54224,-25.785199 12.29011,-29.210719 3.95633,-1.15361 4.25945,-1.42196 2.30639,-2.04184 -3.85039,-1.22207 -4.78671,-4.356221 -2.30444,-7.713671 1.81976,-2.46136 1.91268,-2.98308 0.61961,-3.47928 -2.73278,-1.04866 -5.56181,-6.90399 -5.55789,-11.503309 0.0109,-12.77262 15.94108,-19.577779 32.49626,-13.88196 3.19721,1.1 7.09265,2 8.65655,2 3.81496,0 3.69507,0.69679 -2.38875,13.883309 l -5.25188,11.38331 2.48306,1.61669 c 11.88915,7.740861 17.89287,21.382371 14.14375,32.137091 -0.95782,2.74762 -0.91246,3.03338 0.31925,2.01115 1.67351,-1.38889 1.98975,-2.36851 7.59651,-23.53155 2.33139,-8.800001 4.32802,-18.475001 4.43694,-21.500001 l 0.19804,-5.499999 7.07249,-0.29218 c 6.0819,-0.25126 7.14814,-0.0412 7.61261,1.5 0.29706,0.985689 3.255,11.827879 6.57319,24.09374 7.49559,27.707859 8.55157,29.930549 10.95041,23.04921 1.68746,-4.84062 1.3562,-37.389941 -0.43101,-42.350771 -2.34573,-6.511169 -2.14548,-6.858449 3.56476,-6.182159 9.44675,1.11883 19.2651,8.751839 22.87913,17.786759 0.77336,1.93336 0.96357,1.23808 0.98613,-3.6046 0.0159,-3.41859 -0.58691,-7.07559 -1.40118,-8.5 -2.91992,-5.107869 -2.15914,-5.999999 5.11658,-5.999999 h 6.61657 l -0.79132,2.749999 c -0.43523,1.5125 -0.95275,13.8875 -1.15005,27.500001 l -0.35873,24.749999 h -4.46652 -4.46653 l -0.0148,-4.749999 c -0.0415,-13.32609 -9.90149,-35.250001 -15.85328,-35.250001 -1.84109,0 -1.52104,30.132941 0.36808,34.654241 0.825,1.9745 1.5,3.985049 1.5,4.467879 0,0.48283 -6.75,0.87788 -15,0.87788 -8.63701,0 -15,-0.39659 -15,-0.9349 0,-0.5142 0.47032,-2.171939 1.04516,-3.683879 0.74928,-1.97077 0.71494,-3.54619 -0.12132,-5.5651 l -1.16648,-2.81612 h -6.83337 -6.83336 l -0.68647,3.65916 c -0.41456,2.20982 -0.23447,4.38291 0.45469,5.48643 2.10554,3.371499 1.30146,3.854409 -6.41787,3.854409 -4.7847,0 -7.33218,-0.36703 -6.94098,-1 0.33992,-0.55 0.1718,-0.999999 -0.3736,-0.999999 -0.54539,0 -1.26848,0.872279 -1.60685,1.938409 -3.32277,10.4691 -30.01766,16.71217 -43.96408,10.28177 l -4.94453,-2.27982 -4.05547,2.89578 c -11.35962,8.11127 -23.22239,10.58784 -27.97081,5.83942 z m 60.69746,-11.05632 c 13.03843,-5.59465 15.64726,-25.228289 4.672,-35.160759 -4.26677,-3.861381 -4.86107,0.20771 -0.61536,4.2133 9.25968,8.73598 6.83967,21.32822 -4.09891,21.32822 -7.54821,0 -11.20952,-5.47198 -5.48985,-8.20481 2.93568,-1.40265 4.19299,-5.25221 2.32539,-7.1198 -0.79191,-0.79191 -1.56828,-0.41496 -2.81203,1.36533 -0.94496,1.3526 -4.54079,5.95827 -7.99073,10.23482 -8.88246,11.010689 -0.084,19.391039 14.00949,13.343699 z M 104.89516,72.809711 c 10.33043,-12.83439 10.92165,-14.53881 4.75628,-13.71186 -7.41138,0.99407 -12.85047,8.77014 -11.43012,16.34125 0.81272,4.33221 1.1901,4.18353 6.67384,-2.62939 z m 65.60034,-12.25 c -1.13368,-5.09466 -3.99328,-15.316431 -4.53746,-16.219381 -0.47201,-0.78319 -5.08138,15.013621 -5.17036,17.719381 -0.0136,0.4125 2.2778,0.75 5.09192,0.75 h 5.11657 z m -50.5486,-9.25423 c 1.46021,-3.204821 0.78206,-3.803161 -4.43067,-3.909231 -3.08382,-0.0627 -4.17483,0.28608 -3.96812,1.26872 0.15679,0.74539 -0.21173,1.953871 -0.81894,2.685521 -0.87957,1.05982 -0.32763,1.41085 2.71491,1.72664 2.10042,0.218 4.16609,0.47202 4.59038,0.56447 0.42429,0.0925 1.28489,-0.9588 1.91244,-2.33612 z m 5.8226,-14.522791 c 3.04209,-12.680849 -6.96845,-22.164859 -14.96009,-14.173219 -6.13844,6.13844 -2.31762,14.855409 6.36729,14.526599 3.77407,-0.14289 4.58632,0.13752 4.58632,1.58333 0,1.84575 0.83241,3.09031 2.06693,3.09031 0.40347,0 1.27627,-2.26216 1.93955,-5.02702 z m 106.5656,43.277021 c 0.81141,-2.77111 1.09759,-44.600871 0.33694,-49.250001 l -0.40902,-2.499999 7,-0.31757 c 23.56764,-1.06918 34.10525,9.911659 30.57106,31.85696 -2.70951,16.8245 -10.47395,22.960609 -29.05366,22.960609 h -9.25055 z m 17.89375,-5.67128 C 264.39607,68.468991 261.67574,35.8378 247.01302,35.81344 l -2.25,-0.004 v 20.000001 c 0,13.08158 0.35703,20 1.03212,20 0.56766,0 2.56284,-0.63958 4.43371,-1.42128 z m 22.53417,7.386089 c 0,-0.56935 0.69234,-2.091819 1.53853,-3.383269 1.66786,-2.54548 1.68009,-42.008881 0.0148,-47.831541 l -0.78649,-2.749999 12.36657,0.006 c 24.94564,0.0113 36.89279,16.436319 18.10957,24.89722 l -3.11423,1.40281 3.45388,6.8585 c 1.89964,3.77218 4.39371,9.37038 5.54237,12.44045 1.31764,3.52171 2.43877,5.23165 3.03757,4.63286 1.88205,-1.88206 10.96798,-36.716591 11.27768,-43.237441 l 0.30871,-6.499999 7.04474,-0.29218 c 6.05241,-0.25103 7.12222,-0.0397 7.59469,1.5 0.30247,0.985689 3.28589,11.917179 6.62983,24.29218 3.34393,12.375 6.7328,23.49666 7.53083,24.71481 2.51686,3.841879 1.83936,4.285189 -6.54905,4.285189 -8.32006,0 -8.74421,-0.27254 -6.86002,-4.407889 0.86994,-1.9093 0.8412,-3.22334 -0.12132,-5.54706 l -1.2613,-3.04505 h -6.83337 -6.83336 l -0.68647,3.65916 c -0.41456,2.20982 -0.23447,4.38291 0.45469,5.48643 2.24936,3.601789 1.41701,3.854409 -12.70006,3.854409 H 298.0806 l 0.0369,-5.749999 c 0.0391,-6.09162 -4.60248,-17.86098 -9.16938,-23.25 l -2.11861,-2.5 -0.0333,13.17857 c -0.0262,10.41381 0.2815,13.49326 1.46681,14.67857 2.96999,2.969989 1.67703,3.642859 -7,3.642859 -5.1926,0 -8.5,-0.4028 -8.5,-1.03519 z m 64,-19.304849 c 0,-0.79246 -4.06727,-16.290391 -4.63467,-17.659961 -0.35208,-0.84984 -1.6219,2.37876 -2.9296,7.448691 -1.26949,4.92178 -2.08531,9.30928 -1.81293,9.75 0.46589,0.75382 9.3772,1.19217 9.3772,0.46127 z M 300.30147,44.74749 c 2.3256,-3.76289 -4.13972,-9.9271 -10.41929,-9.93405 l -3.38084,-0.004 0.58245,3.58923 c 1.22301,7.53654 9.90596,11.707031 13.21768,6.34855 z m 61.46155,37.18434 c 0,-0.48283 0.675,-2.493379 1.5,-4.467879 0.825,-1.9745 1.5,-6.53546 1.5,-10.13545 v -6.54545 L 357.85658,46.99647 c -3.79854,-7.58262 -7.62354,-14.38172 -8.5,-15.10912 -3.61204,-2.997719 -1.91536,-4.077639 6.40644,-4.077639 h 8 v 2.918509 c 0,1.60518 1.56333,6.18064 3.47407,10.16768 l 3.47407,7.24917 3.23842,-6.91768 c 1.78113,-3.80473 3.25529,-8.26768 3.27593,-9.91768 l 0.0375,-2.999999 6.25,-0.29772 c 6.07123,-0.2892 8.52701,1.27241 5.21752,3.317789 -0.56786,0.35095 -3.94286,6.44609 -7.5,13.54473 l -6.46751,12.906641 0.006,8.76428 c 0.004,5.8188 0.50821,9.7269 1.5,11.62858 2.31095,4.430739 2.02329,4.635699 -6.506,4.635699 -4.4,0 -8,-0.39505 -8,-0.87788 z m 24,-0.65731 c 0,-0.844349 0.63617,-2.531849 1.41371,-3.749999 2.18862,-3.42886 11.67908,-41.489861 11.36524,-45.579701 l -0.27895,-3.635109 6.75061,-0.29571 6.75062,-0.2957 0.99525,2.295699 c 0.54739,1.26264 3.71503,12.40507 7.03921,24.760961 3.32417,12.3559 6.70103,23.19133 7.50413,24.07874 2.93949,3.248099 1.75827,3.956009 -6.60109,3.956009 h -8.06128 l 0.65767,-4.385629 c 1.06426,-7.09703 -0.35389,-8.61437 -8.05125,-8.61437 h -6.44577 l -0.63931,2.54721 c -0.35162,1.40097 -0.35487,4.32597 -0.007,6.5 l 0.63185,3.952789 h -6.51182 c -5.18795,0 -6.51182,-0.31211 -6.51182,-1.53519 z m 24.478,-20.382639 c -0.29922,-0.7798 -1.51296,-5.2798 -2.69721,-10 l -2.15318,-8.582171 -2.29271,9.000001 c -2.79733,10.98085 -2.6807,11.3991 3.11631,11.17595 3.49008,-0.13435 4.44218,-0.51119 4.02679,-1.59378 z"
       id="path4" />
    <path
       style="fill:#000000"
       d="m 331.23533,117.11456 -2.43068,4.06586 c 0,0 0.48614,-3.13778 2.43068,-4.06586 z"
       id="path26" />
    <path
       style="fill:#000000"
       d="m 331.18009,117.214 c 0.0147,-0.011 0.0552,-0.0184 0.0442,-0.0331 -0.011,-0.0147 -0.0572,0.0462 -0.0442,0.0331 0.085,-0.085 0.11029,-0.0994 0.20992,-0.0994 0.0147,0 0.0305,-0.005 0.0442,0 0.089,0.0356 0.0495,0.0245 0.0773,0.0663 0.0106,0.016 0.0346,0.0204 0.0442,0.0331 0.007,0.009 0.006,0.0227 0.0111,0.0331 0.002,0.005 0.007,0.007 0.011,0.011 0.007,0.0147 0.0154,0.0292 0.0221,0.0442 0.0222,0.0498 0.0247,0.0805 0.0442,0.13258 0.0282,0.0753 -0.004,-0.0815 0.0442,0.11048 0.004,0.0143 -0.003,0.0297 0,0.0442 0.0111,0.0479 0.0221,0.0957 0.0332,0.14363 0,0.0111 -0.001,0.0222 0,0.0331 0.006,0.0554 0.0181,0.11014 0.0221,0.16573 0.009,0.12431 -0.0113,0.25155 0,0.37565 0.003,0.0374 0.0174,0.0732 0.0221,0.11049 0.008,0.0621 0.007,0.1256 0,0.18782 -0.006,0.0533 -0.0337,0.1021 -0.0442,0.15468 -0.0154,0.077 -0.0266,0.16502 -0.0332,0.24307 -9.1e-4,0.011 0.003,0.0225 0,0.0331 -0.005,0.0158 -0.0185,0.0281 -0.0221,0.0442 -0.0102,0.0457 0.008,0.0975 0,0.14363 -0.012,0.0661 -0.0451,0.133 -0.0553,0.19888 -0.004,0.0255 0.003,0.0518 0,0.0773 -0.0237,0.17785 -0.0138,-10e-4 -0.0773,0.17677 -0.007,0.0208 0.005,0.0449 0,0.0663 -0.006,0.024 -0.0243,0.0432 -0.0331,0.0663 -0.0247,0.0642 -0.0347,0.1332 -0.0553,0.19887 -0.006,0.0189 -0.0182,0.0358 -0.0221,0.0552 -0.004,0.0181 0.004,0.0374 0,0.0552 -0.003,0.0129 -0.0172,0.0208 -0.0221,0.0332 -0.01,0.0249 -0.0127,0.0522 -0.0221,0.0773 -0.002,0.005 -0.009,0.006 -0.011,0.011 -0.009,0.0251 -0.0101,0.0534 -0.0221,0.0773 -0.0586,0.11727 -0.20665,0.21974 -0.29831,0.29831 -0.0834,0.0715 -0.17339,0.1354 -0.25412,0.20992 -0.0135,0.0125 -0.0173,0.0347 -0.0331,0.0442 -0.0411,0.0246 -0.0893,0.0348 -0.13259,0.0552 -0.0957,0.045 -0.19091,0.10619 -0.29831,0.12153 -0.0255,0.004 -0.0518,-0.003 -0.0773,0 -0.083,0.0104 -0.18461,0.0322 -0.26516,0.0552 -0.0935,0.0267 -0.1746,0.0876 -0.26517,0.12154 -0.0276,0.0103 -0.0594,-0.005 -0.0884,0 -0.0195,0.004 -0.0362,0.0164 -0.0552,0.0221 -0.036,0.0108 -0.0753,0.009 -0.11048,0.0221 -0.0124,0.005 -0.0207,0.0174 -0.0332,0.0221 -0.0176,0.007 -0.0374,0.005 -0.0552,0.011 -0.0156,0.005 -0.0286,0.0169 -0.0442,0.0221 -0.0254,0.008 -0.0509,0.0177 -0.0773,0.0221 -0.0145,0.002 -0.0299,-0.004 -0.0442,0 -0.016,0.004 -0.0286,0.0169 -0.0442,0.0221 -0.011,0.004 -0.12432,0.004 -0.13258,0 -0.0397,-0.0199 -0.008,-0.0191 -0.0331,-0.0442 -0.007,-0.007 -0.0441,-0.0147 -0.0553,-0.0221 -0.0122,-0.008 -0.0201,-0.0266 -0.0331,-0.0331 -0.009,-0.004 -0.0238,0.003 -0.0332,0 -0.008,-0.003 -0.0175,-0.004 -0.0221,-0.011 -0.004,-0.006 0.002,-0.0151 0,-0.0221 -0.004,-0.0131 -0.0269,-0.0207 -0.0331,-0.0331 -0.011,-0.022 0.002,-0.0808 0.0111,-0.0994 0.005,-0.009 0.0188,-0.0122 0.0221,-0.0221 0.005,-0.0155 0.002,-0.0533 0.011,-0.0663 0.005,-0.007 0.0163,-0.005 0.0221,-0.0111 0.01,-0.01 0.002,-0.1308 0.0111,-0.14363 0.011,-0.0165 0.04,-0.0562 0.0442,-0.0773 0.002,-0.0108 -0.003,-0.0224 0,-0.0332 0.0162,-0.0647 0.004,0.025 0.0221,-0.011 0.003,-0.007 -0.002,-0.0151 0,-0.0221 0.002,-0.007 0.0199,-0.0264 0.0221,-0.0332 0.006,-0.0166 -0.0111,-0.011 0,-0.0331 0.002,-0.003 0.008,0.003 0.0111,0 0.008,-0.008 -0.004,-0.0227 0,-0.0331 0.009,-0.0266 0.0176,-0.054 0.0331,-0.0773 0.002,-0.003 0.009,0.003 0.0111,0 0.004,-0.009 -0.004,-0.0243 0,-0.0331 0.009,-0.0177 0.0354,-0.0265 0.0442,-0.0442 0.0134,-0.0268 0.0378,-0.0483 0.0552,-0.0773 0.0218,-0.0363 0.0311,-0.0853 0.0552,-0.12153 0.006,-0.009 0.0174,-0.0128 0.0221,-0.0221 0.007,-0.0136 0.0185,-0.07 0.0221,-0.0773 0.002,-0.003 0.009,0.003 0.011,0 0.0373,-0.0621 0.01,-0.0415 0.0332,-0.0994 0.002,-0.005 0.007,-0.007 0.0111,-0.011 0.004,-0.007 0.008,-0.0143 0.011,-0.0221 0.006,-0.0166 -0.011,-0.011 0,-0.0331 0.036,-0.0719 0.0111,0.022 0.0331,-0.0442 0.0244,-0.0731 0.0536,-0.15147 0.0884,-0.22097 0.002,-0.005 0.009,-0.006 0.0111,-0.011 0.002,-0.007 -0.003,-0.0153 0,-0.0221 0.0226,-0.0565 0.0749,-0.10717 0.11048,-0.15468 0.0214,-0.0285 0.0462,-0.0583 0.0663,-0.0884 0.006,-0.01 0.003,-0.0249 0.011,-0.0331 0.003,-0.003 0.009,0.003 0.0111,0 0.0409,-0.0818 -7.4e-4,-0.0102 0.0553,-0.0773 0.0691,-0.0829 -0.0497,0.0331 0.0663,-0.0994 0.009,-0.01 0.0249,-0.0117 0.0331,-0.0221 0.007,-0.009 0.005,-0.0232 0.0111,-0.0331 0.005,-0.009 0.0169,-0.0131 0.0221,-0.0221 0.0156,-0.0273 0.017,-0.0614 0.0331,-0.0884 0.005,-0.008 0.0512,-0.0733 0.0553,-0.0773 0.006,-0.006 0.0163,-0.005 0.0221,-0.011 0.0323,-0.0323 0.0427,-0.0837 0.0663,-0.12153 0.0272,-0.0435 0.0655,-0.0869 0.0884,-0.13258 0.007,-0.0136 0.005,-0.0302 0.0111,-0.0442 0.007,-0.0166 0.0283,-0.0358 0.0331,-0.0552 0.002,-0.007 -0.004,-0.0162 0,-0.0221 0.008,-0.0106 0.0238,-0.0127 0.0331,-0.0221 0.003,-0.003 -10e-4,-0.008 0,-0.0111 0.006,-0.0153 0.0141,-0.0298 0.0221,-0.0442 0.0397,-0.0714 0.06,-0.14998 0.0994,-0.22097 0.0603,-0.10854 -0.0317,0.15081 0.0552,-0.0884 0.0186,-0.0931 -0.001,-0.0194 0.0331,-0.0994 0.0141,-0.0329 0.0479,-0.15841 0.0663,-0.17678 0.0565,-0.0565 -0.0154,0.0463 0.0442,-0.0332 0.008,-0.0106 0.0179,-0.0205 0.0221,-0.0331 0.002,-0.007 -0.004,-0.0157 0,-0.0221 0.0117,-0.0205 0.0305,-0.0361 0.0442,-0.0552 0.0133,-0.0186 0.0209,-0.051 0.0331,-0.0663 0.0337,-0.0421 0.078,-0.0782 0.11048,-0.12154 0.0213,-0.0284 0.0478,-0.0575 0.0663,-0.0884 0.0145,-0.0241 0.0212,-0.0589 0.0442,-0.0773 0.0129,-0.0103 0.0318,-0.0113 0.0442,-0.0221 0.0177,-0.0155 0.0275,-0.0386 0.0442,-0.0552 0.013,-0.013 0.0327,-0.0188 0.0442,-0.0331 0.005,-0.006 0,-0.0147 0,-0.0221 0.004,-0.007 0.005,-0.0163 0.0111,-0.0221 0.003,-0.003 0.0404,-0.0319 0.0442,-0.0332 0.007,-0.002 0.0151,0.002 0.0221,0 0.01,-0.003 0.0128,-0.0174 0.0221,-0.0221 0.007,-0.003 0.0151,0.002 0.0221,0 0.0639,-0.0213 0.13187,-0.0431 0.19888,-0.0552 0.0302,-0.005 0.0655,8.3e-4 0.0884,-0.0221"
       id="path27" />
    <path
       style="fill:#ffffff"
       d="m 338,119.5625 -1.875,4.0625 c 0,0 -0.6875,-3.625 1.875,-4.0625 z"
       id="path28" />
    <path
       style="fill:#ffffff;fill-opacity:1"
       d="M 336.3125,123.5 338,119.5625 c 0,0 6.75,4.0625 -1.6875,3.9375 z"
       id="path29" />
    <path
       style="fill:#ffffff"
       d="m 338.03125,119.625 -1.78125,4.0625 c 0,0 -2.09375,-3.78125 1.78125,-4.0625 z"
       id="path30" />
    <path
       style="fill:#000000"
       d="m 336.0625,123.3125 0.3125,0.21875 c 0,0 -0.4375,0.76562 -0.3125,-0.21875 z"
       id="path31" />
    <path
       style="fill:#ffffff;fill-opacity:1"
       d="m 338.03125,119.625 c -0.037,0.0737 -0.18227,-0.0834 -0.23438,-0.0312 -0.004,0.004 0.002,0.0107 0,0.0156 -0.003,0.01 -0.0281,0.0373 -0.0312,0.0469 -0.0165,0.0494 -0.0235,0.10954 -0.0469,0.15625 -0.0151,0.0303 0.008,0.0576 -0.0156,0.0937 -0.003,0.004 -0.0119,-0.004 -0.0156,0 -0.004,0.004 0.003,0.0115 0,0.0156 -0.0206,0.0275 -0.0556,0.0656 -0.0781,0.0937 -0.0138,0.0173 -0.0346,0.0285 -0.0469,0.0469 -0.009,0.0137 -0.007,0.0326 -0.0156,0.0469 -0.0244,0.0427 -0.0521,0.0833 -0.0781,0.125 -0.074,0.11835 -0.15598,0.23385 -0.21875,0.35938 -0.0743,0.14858 -0.13458,0.30233 -0.20313,0.45312 -0.0398,0.0876 -0.0496,0.0863 -0.0781,0.17188 -0.034,0.10194 -0.0679,0.19733 -0.10938,0.29687 -0.0127,0.0304 -0.0208,0.0625 -0.0312,0.0937 -0.0104,0.0521 -0.0115,0.10694 -0.0312,0.15625 -0.0124,0.031 -0.0446,0.05 -0.0625,0.0781 -0.0188,0.0295 -0.0327,0.0618 -0.0469,0.0937 -0.0154,0.0346 -0.0159,0.0747 -0.0312,0.10937 -0.0123,0.0278 -0.0333,0.051 -0.0469,0.0781 -0.0125,0.0251 -0.0173,0.0538 -0.0312,0.0781 -0.0252,0.044 -0.0791,0.0893 -0.0937,0.14063 -0.006,0.02 0.008,0.0434 0,0.0625 -0.009,0.0203 -0.0359,0.0277 -0.0469,0.0469 -0.0106,0.0187 -0.007,0.0428 -0.0156,0.0625 -0.0271,0.0633 -0.0682,0.12365 -0.0937,0.1875 -0.0149,0.0373 0,0.17426 0,0.21875 0,0.0593 0.0172,0.24533 0,0.29688 -0.002,0.007 -0.0123,0.009 -0.0156,0.0156 -0.007,0.014 0.004,0.0317 0,0.0469 -0.003,0.0113 -0.0128,0.0199 -0.0156,0.0312 -0.002,0.009 -0.006,0.0879 0,0.0937 0.0117,0.0117 0.12884,0 0.14063,0 0.026,0 0.0529,0.006 0.0781,0 0.007,-0.002 0.009,-0.0133 0.0156,-0.0156 0.0616,-0.0205 0.0389,0.007 0.14062,-0.0312 0.19181,-0.0719 0.26005,-0.33466 0.32813,-0.5 0.0195,-0.0474 0.0463,-0.092 0.0625,-0.14062 0.0257,-0.0772 0.0183,-0.17202 0.0312,-0.25 0.005,-0.0278 0.0454,-0.16815 0.0469,-0.17188 0.007,-0.0174 0.0264,-0.0287 0.0312,-0.0469 0.0163,-0.0612 0.0172,-0.12571 0.0312,-0.1875 0.0371,-0.16306 0.10404,-0.30237 0.17188,-0.45313 0.023,-0.0511 0.0374,-0.10607 0.0625,-0.15625 0.0667,-0.13341 0.1594,-0.25213 0.21875,-0.39062 0.0609,-0.14199 0.10325,-0.30362 0.14062,-0.45313 0.0541,-0.21636 -0.007,0.005 0.0156,-0.15625 0.003,-0.0196 0.0464,-0.12326 0.0469,-0.125 0.004,-0.0151 -0.004,-0.0317 0,-0.0469 0.0184,-0.0738 0.0572,-0.14558 0.0781,-0.21875 0.005,-0.017 0.009,-0.0967 0.0156,-0.10938 0.007,-0.0132 0.0231,-0.019 0.0312,-0.0312 0.0329,-0.0494 0.0586,-0.11915 0.0937,-0.17187 0.004,-0.006 0.0182,-0.009 0.0156,-0.0156 -0.0147,-0.0393 -0.0417,-0.0729 -0.0625,-0.10937 z"
       id="path32" />
    <path
       style="fill:#000000"
       d="m 247.44318,192.15627 -1.81196,2.07712 c 0,0 -6.80591,-1.72357 1.81196,-2.07712 z"
       id="path33" />
    <path
       style="fill:#000000"
       d="m 245.56493,191.86901 c -0.19652,-0.002 -0.40441,-0.0234 -0.57453,0.0994 -0.0853,0.0616 -0.13223,0.22973 -0.16573,0.29831 -0.11435,0.23416 -0.10944,0.17338 -0.15468,0.32041 -0.008,0.0247 -0.0358,0.10537 -0.0221,0.12153 0.1612,0.19052 0.43487,0.19888 0.66291,0.19888 0.0442,0 0.0889,0.007 0.13258,0 0.11814,-0.0182 0.23045,-0.0639 0.29831,-0.16573 0.0402,-0.0603 0.0274,-0.13037 0.0331,-0.19887 0.003,-0.0332 0.008,-0.0662 0.0111,-0.0994 0.003,-0.0314 -0.01,-0.07 0,-0.0994 0.002,-0.005 0.009,-0.006 0.0111,-0.011 0.009,-0.0262 0.003,-0.0863 0,-0.11048 -0.005,-0.0434 -0.0139,-0.0586 -0.0221,-0.0994 -0.007,-0.0349 0.0156,-0.0904 0,-0.12153 -0.002,-0.003 -0.009,0.003 -0.011,0 -0.003,-0.007 0.003,-0.0155 0,-0.0221 -0.0252,-0.0505 -0.0878,-0.0342 -0.12153,-0.0552 -0.0269,-0.0168 -0.0516,-0.0368 -0.0773,-0.0552 z"
       id="path34" />
  </g>
</svg>
